<?xml version="1.0" encoding="UTF-8"?>
<svg version="1.1" xmlns="http://www.w3.org/2000/svg" width="353" height="127">
<path d="M0 0 C29.33732845 -0.08032734 29.33732845 -0.08032734 43.86529922 -0.10050774 C51.71133098 -0.11157526 59.55732005 -0.12560955 67.40332031 -0.15087891 C73.61694499 -0.1708813 79.8305374 -0.18373262 86.04419339 -0.18817699 C89.33096966 -0.19077284 92.61763271 -0.19789403 95.90438461 -0.21146011 C99.58328408 -0.22603703 103.26199413 -0.22797532 106.94091797 -0.22705078 C108.55609566 -0.23783661 108.55609566 -0.23783661 110.2039032 -0.24884033 C123.05525696 -0.21403096 134.70504456 2.33118496 144.40625 11.27734375 C153.70996956 21.33357004 155.51573896 31.51747546 155.4375 44.875 C155.45748047 46.07769531 155.47746094 47.28039062 155.49804688 48.51953125 C155.49114024 61.24156127 151.99658011 70.78154103 143.15234375 79.90625 C136.26204662 86.37189661 128.31039002 90.12986882 118.8114624 90.12025452 C117.76260864 90.12162918 116.71375488 90.12300385 115.63311768 90.12442017 C114.4880072 90.12082489 113.34289673 90.11722961 112.16308594 90.11352539 C110.95305908 90.11367142 109.74303223 90.11381744 108.49633789 90.1139679 C105.18260638 90.11339082 101.86893726 90.10837727 98.55521679 90.10139394 C95.09054435 90.09514051 91.62587106 90.09455502 88.16119385 90.09336853 C81.60228191 90.09026109 75.04338665 90.0820556 68.48448205 90.07201904 C60.28392874 90.05974293 52.08337271 90.05427076 43.8828125 90.04882812 C29.25519534 90.03908986 14.62761458 90.0190574 0 90 C0 60.3 0 30.6 0 0 Z " fill="#BDD635" transform="translate(167,18)"/>
<path d="M0 0 C3.3 0 6.6 0 10 0 C11.65 5.28 13.3 10.56 15 16 C16.65 10.72 18.3 5.44 20 0 C23.3 0 26.6 0 30 0 C30.02465881 3.96930989 30.04284023 7.93859034 30.05493164 11.90795898 C30.05997057 13.25920386 30.06680177 14.61044326 30.07543945 15.96166992 C30.08752419 17.90020434 30.09269828 19.838778 30.09765625 21.77734375 C30.10551147 23.52905884 30.10551147 23.52905884 30.11352539 25.31616211 C30 28 30 28 29 29 C26.5 29.125 26.5 29.125 24 29 C22.12175109 27.12175109 22.60897603 23.96064724 22.4375 21.4375 C22.31181641 19.64119141 22.31181641 19.64119141 22.18359375 17.80859375 C22.12300781 16.88175781 22.06242187 15.95492187 22 15 C21.72285156 15.92683594 21.44570313 16.85367188 21.16015625 17.80859375 C20.79792969 19.00613281 20.43570313 20.20367187 20.0625 21.4375 C19.70285156 22.63246094 19.34320313 23.82742187 18.97265625 25.05859375 C18 28 18 28 17 29 C15.33382885 29.04063832 13.66611905 29.042721 12 29 C9.72623708 24.03906272 8.21376034 19.32187227 7 14 C6.67 18.95 6.34 23.9 6 29 C4.35 29 2.7 29 1 29 C0 28 0 28 -0.11352539 25.31616211 C-0.10828857 24.14835205 -0.10305176 22.98054199 -0.09765625 21.77734375 C-0.09443359 20.51728516 -0.09121094 19.25722656 -0.08789062 17.95898438 C-0.07953403 16.61848891 -0.07106907 15.27799412 -0.0625 13.9375 C-0.0574866 12.59310058 -0.05292342 11.2486994 -0.04882812 9.90429688 C-0.03699488 6.60282059 -0.02050971 3.30143197 0 0 Z " fill="#2BB24B" transform="translate(33,45)"/>
<path d="M0 0 C1.98 0 3.96 0 6 0 C6 3.63 6 7.26 6 11 C9.63 11 13.26 11 17 11 C17 7.37 17 3.74 17 0 C19.31 0 21.62 0 24 0 C24 9.24 24 18.48 24 28 C21.69 28 19.38 28 17 28 C17 24.04 17 20.08 17 16 C13.37 16 9.74 16 6 16 C6 19.96 6 23.92 6 28 C4.02 28 2.04 28 0 28 C0 18.76 0 9.52 0 0 Z " fill="#F9FBF1" transform="translate(173,45)"/>
<path d="M0 0 C2.53887563 2.06871348 2.84461222 4.2396028 3.6875 7.375 C3.91796875 10.98828125 3.91796875 10.98828125 3.875 14.6875 C3.86855469 15.92113281 3.86210937 17.15476562 3.85546875 18.42578125 C3.6875 21.375 3.6875 21.375 2.6875 22.375 C0.23257499 22.55563984 -2.16754249 22.65301743 -4.625 22.6875 C-5.64110352 22.73100586 -5.64110352 22.73100586 -6.67773438 22.77539062 C-10.12074559 22.81914346 -11.97240698 22.62939175 -14.76171875 20.54296875 C-16.3125 18.375 -16.3125 18.375 -16.8125 15.375 C-16.3125 12.375 -16.3125 12.375 -14.875 10.0625 C-11.20171892 7.64351002 -7.63433086 7.55969363 -3.3125 7.375 C-3.3125 6.715 -3.3125 6.055 -3.3125 5.375 C-6.60325996 5.75404208 -6.60325996 5.75404208 -9.3125 7.375 C-11.31208364 7.41580783 -13.31295254 7.41754356 -15.3125 7.375 C-15.0448244 4.07366765 -14.7521165 2.74996702 -12.1875 0.5625 C-7.97971002 -1.17550021 -4.38167683 -1.18423698 0 0 Z M-8.3125 12.375 C-8.6425 13.695 -8.9725 15.015 -9.3125 16.375 C-7.42070797 17.0564823 -7.42070797 17.0564823 -5.3125 17.375 C-4.6525 16.715 -3.9925 16.055 -3.3125 15.375 C-3.3125 14.385 -3.3125 13.395 -3.3125 12.375 C-4.9625 12.375 -6.6125 12.375 -8.3125 12.375 Z " fill="#2BB24B" transform="translate(143.3125,51.625)"/>
<path d="M0 0 C2.02981885 1.79292923 2.89561528 3.20400275 3.24975586 5.90454102 C3.33170484 8.17332787 3.31056684 10.41813612 3.25 12.6875 C3.24484375 13.47189453 3.2396875 14.25628906 3.234375 15.06445312 C3.15442868 20.84557132 3.15442868 20.84557132 2 22 C-0.5 22.125 -0.5 22.125 -3 22 C-4.99616554 20.00383446 -4.40983427 16.18298037 -4.5625 13.4375 C-4.60568359 12.72658203 -4.64886719 12.01566406 -4.69335938 11.28320312 C-4.79971777 9.52238088 -4.90038846 7.7612168 -5 6 C-6.32 6 -7.64 6 -9 6 C-9.06058594 7.07121094 -9.12117188 8.14242187 -9.18359375 9.24609375 C-9.26798537 10.64324391 -9.35263406 12.04037857 -9.4375 13.4375 C-9.47681641 14.14455078 -9.51613281 14.85160156 -9.55664062 15.58007812 C-9.88671875 20.88671875 -9.88671875 20.88671875 -11 22 C-13.5 22.125 -13.5 22.125 -16 22 C-17 21 -17 21 -17.11352539 18.95874023 C-17.10828857 18.08419189 -17.10305176 17.20964355 -17.09765625 16.30859375 C-17.09443359 15.36435547 -17.09121094 14.42011719 -17.08789062 13.44726562 C-17.07951172 12.45404297 -17.07113281 11.46082031 -17.0625 10.4375 C-17.05798828 9.44041016 -17.05347656 8.44332031 -17.04882812 7.41601562 C-17.03700007 4.94395151 -17.02051849 2.47200482 -17 0 C-14.98177083 0.03255208 -12.96354167 0.06510417 -10.9453125 0.09765625 C-1.62362324 -0.37030004 -1.62362324 -0.37030004 0 0 Z " fill="#2BB24B" transform="translate(107,52)"/>
<path d="M0 0 C3.27122427 1.93850327 5.53024775 3.32805286 6.59375 7.11328125 C6.875 9.3125 6.875 9.3125 7 13 C2.38 13 -2.24 13 -7 13 C-6.67 13.99 -6.34 14.98 -6 16 C-4.33388095 16.042721 -2.66617115 16.04063832 -1 16 C-0.67 15.67 -0.34 15.34 0 15 C1.99958364 14.95919217 4.00045254 14.95745644 6 15 C5.4360709 18.27078876 4.54319569 19.86371562 2 22 C-1.06429776 23.53214888 -3.6165642 23.22938548 -7 23 C-10.83304169 21.29642591 -12.4359738 19.8408608 -14 16 C-14.58917111 11.72277075 -14.44539482 8.04667782 -12.75 4.0625 C-9.09758951 -0.24212664 -5.55592025 -0.6705421 0 0 Z M-5 5 C-5.66 6.32 -6.32 7.64 -7 9 C-4.69 9 -2.38 9 0 9 C-0.66 7.68 -1.32 6.36 -2 5 C-2.99 5 -3.98 5 -5 5 Z " fill="#2BB24B" transform="translate(81,51)"/>
<path d="M0 0 C0.86367187 -0.01675781 1.72734375 -0.03351562 2.6171875 -0.05078125 C5.82771235 0.41429478 7.03772337 0.7827592 9.125 3.3125 C9.61808484 6.38787402 9.49984187 9.39575884 9.375 12.5 C9.35695312 13.34498047 9.33890625 14.18996094 9.3203125 15.06054688 C9.27320586 17.14501573 9.20146233 19.22890144 9.125 21.3125 C6.51972895 21.42042837 3.91891689 21.49974878 1.3125 21.5625 C0.57451172 21.59601563 -0.16347656 21.62953125 -0.92382812 21.6640625 C-6.39506547 21.76308942 -6.39506547 21.76308942 -8.85546875 19.453125 C-10.14974877 16.73563285 -10.469019 15.28259498 -9.875 12.3125 C-7.7092985 9.80840764 -6.11169679 8.4565146 -2.76171875 8.06640625 C-0.79776836 8.06291788 1.16554455 8.17965556 3.125 8.3125 C2.795 7.3225 2.465 6.3325 2.125 5.3125 C-1.175 5.6425 -4.475 5.9725 -7.875 6.3125 C-6.50427099 0.82958395 -5.38920085 0.02398754 0 0 Z " fill="#FBFCF5" transform="translate(231.875,51.6875)"/>
<path d="M0 0 C3.0625 2.0625 3.0625 2.0625 5 5 C5.3125 8.8125 5.3125 8.8125 5 12 C0.71 12 -3.58 12 -8 12 C-7.67 13.32 -7.34 14.64 -7 16 C-1.555 15.505 -1.555 15.505 4 15 C3 19 3 19 0 21 C-3.06526351 21.54531842 -5.93408329 21.54325893 -9 21 C-11.75569447 18.81840855 -13.43588747 17.12822506 -15 14 C-15.54724071 8.30869663 -14.59333707 5.43882815 -11 1 C-7.51339956 -0.74330022 -3.80407065 -0.5706106 0 0 Z " fill="#FAFCF3" transform="translate(215,52)"/>
<path d="M0 0 C1.65 0 3.3 0 5 0 C5 3.3 5 6.6 5 10 C5.99 9.34 6.98 8.68 8 8 C14.24462616 7.44244409 14.24462616 7.44244409 16.70043945 9.25512695 C18.3156962 11.4238739 18.35000502 12.54976414 18.29296875 15.23046875 C18.28330078 16.03291016 18.27363281 16.83535156 18.26367188 17.66210938 C18.23853516 18.49548828 18.21339844 19.32886719 18.1875 20.1875 C18.16719727 21.4549707 18.16719727 21.4549707 18.14648438 22.74804688 C18.11115799 24.83230384 18.05735139 26.91623277 18 29 C16.35 29 14.7 29 13 29 C12.67 24.05 12.34 19.1 12 14 C8.36380344 12.91915479 8.36380344 12.91915479 6 13 C5.67 18.28 5.34 23.56 5 29 C3.35 29 1.7 29 0 29 C0 19.43 0 9.86 0 0 Z " fill="#FEFEFE" transform="translate(272,44)"/>
<path d="M0 0 C2.31 0 4.62 0 7 0 C7 1.98 7 3.96 7 6 C8.32 6 9.64 6 11 6 C11 7.65 11 9.3 11 11 C9.68 11 8.36 11 7 11 C7 14.63 7 18.26 7 22 C8.32 22.33 9.64 22.66 11 23 C10.67 24.65 10.34 26.3 10 28 C6.55344261 28.3133234 4.66371577 28.48356435 1.8125 26.40625 C-0.60016414 23.20323037 -0.40848829 21.21220722 -0.25 17.25 C-0.21390625 16.07953125 -0.1778125 14.9090625 -0.140625 13.703125 C-0.09421875 12.81109375 -0.0478125 11.9190625 0 11 C-0.99 11 -1.98 11 -3 11 C-3 9.35 -3 7.7 -3 6 C-2.01 6 -1.02 6 0 6 C0 4.02 0 2.04 0 0 Z " fill="#2BB24B" transform="translate(115,46)"/>
<path d="M0 0 C2.31 0 4.62 0 7 0 C7.02465622 4.25414623 7.04283899 8.50825498 7.05493164 12.76245117 C7.05997101 14.21070073 7.06680253 15.65894517 7.07543945 17.10717773 C7.08752247 19.18474588 7.09323211 21.26224697 7.09765625 23.33984375 C7.10289307 24.59144287 7.10812988 25.84304199 7.11352539 27.13256836 C7 30 7 30 6 31 C3.5 31.125 3.5 31.125 1 31 C0 30 0 30 -0.11352539 27.13256836 C-0.10828857 25.88096924 -0.10305176 24.62937012 -0.09765625 23.33984375 C-0.0962413 22.67537735 -0.09482635 22.01091095 -0.09336853 21.3263092 C-0.08775518 19.19666101 -0.07520054 17.06711661 -0.0625 14.9375 C-0.05748671 13.49674631 -0.05292351 12.05599097 -0.04882812 10.61523438 C-0.03778145 7.07678898 -0.02050792 3.53840461 0 0 Z " fill="#2BB24B" transform="translate(151,43)"/>
<path d="M0 0 C1.98 0 3.96 0 6 0 C6 1.98 6 3.96 6 6 C7.32 6 8.64 6 10 6 C10 7.65 10 9.3 10 11 C8.68 11 7.36 11 6 11 C6 14.96 6 18.92 6 23 C6.99 23 7.98 23 9 23 C9 24.32 9 25.64 9 27 C5.625 27.125 5.625 27.125 2 27 C0 25 0 25 -0.1953125 21.5234375 C-0.18201493 20.14049032 -0.15816232 18.75761346 -0.125 17.375 C-0.11597656 16.66859375 -0.10695313 15.9621875 -0.09765625 15.234375 C-0.07407603 13.48943902 -0.03820461 11.74467705 0 10 C-0.99 10 -1.98 10 -3 10 C-3 8.68 -3 7.36 -3 6 C-2.01 6 -1.02 6 0 6 C0 4.02 0 2.04 0 0 Z " fill="#FAFCF3" transform="translate(259,46)"/>
<path d="M0 0 C1.65 0 3.3 0 5 0 C5 9.57 5 19.14 5 29 C3.35 29 1.7 29 0 29 C0 19.43 0 9.86 0 0 Z " fill="#FFFFFF" transform="translate(247,44)"/>
<path d="M0 0 C0.99 0 1.98 0 3 0 C2.68917128 1.75029762 2.37626821 3.50022694 2.0625 5.25 C1.88847656 6.22453125 1.71445312 7.1990625 1.53515625 8.203125 C1.09620271 10.49721795 0.59651408 12.74291971 0 15 C-2.31 15.33 -4.62 15.66 -7 16 C-9 13 -9 13 -8.8125 10 C-7.61798753 5.58949243 -7.61798753 5.58949243 -5 4 C-2.3125 4.3125 -2.3125 4.3125 0 5 C0 3.35 0 1.7 0 0 Z " fill="#F2F7DD" transform="translate(278,83)"/>
<path d="M0 0 C0.99 0 1.98 0 3 0 C2.68917128 1.75029762 2.37626821 3.50022694 2.0625 5.25 C1.88847656 6.22453125 1.71445312 7.1990625 1.53515625 8.203125 C1.09620271 10.49721795 0.59651408 12.74291971 0 15 C-2.31 15.33 -4.62 15.66 -7 16 C-9 13 -9 13 -8.8125 10 C-7.61798753 5.58949243 -7.61798753 5.58949243 -5 4 C-2.3125 4.3125 -2.3125 4.3125 0 5 C0 3.35 0 1.7 0 0 Z " fill="#F2F7DD" transform="translate(267,83)"/>
<path d="M0 0 C7.50769231 -0.36923077 7.50769231 -0.36923077 10 1.5 C10.495 2.2425 10.495 2.2425 11 3 C8 4 8 4 6 4 C7.32 4.66 8.64 5.32 10 6 C9.67 7.65 9.34 9.3 9 11 C5.71303767 11.79953138 4.28976808 12.09658936 1 11 C0.01 11 -0.98 11 -2 11 C-1.34 7.37 -0.68 3.74 0 0 Z " fill="#F5F8E5" transform="translate(282,87)"/>
<path d="M0 0 C0.99 0 1.98 0 3 0 C4.33583899 4.84241633 5.25328119 8.93437617 5 14 C4.34 14 3.68 14 3 14 C3 12.68 3 11.36 3 10 C1.02 10 -0.96 10 -3 10 C-3.33 11.32 -3.66 12.64 -4 14 C-4.99 13.67 -5.98 13.34 -7 13 C-3.535 6.565 -3.535 6.565 0 0 Z " fill="#F9FBF0" transform="translate(252,84)"/>
<path d="M0 0 C1.32 0.33 2.64 0.66 4 1 C4.103125 1.763125 4.20625 2.52625 4.3125 3.3125 C5.04364039 6.17059424 5.76951913 7.15742885 8 9 C4 9 4 9 2 8 C1.67 8.99 1.34 9.98 1 11 C0.01 11 -0.98 11 -2 11 C-1.34 7.37 -0.68 3.74 0 0 Z " fill="#C7DB57" transform="translate(282,87)"/>
<path d="M0 0 C0.99 0 1.98 0 3 0 C2.34 3.63 1.68 7.26 1 11 C0.34 11 -0.32 11 -1 11 C-1.185625 10.071875 -1.185625 10.071875 -1.375 9.125 C-1.87197356 6.80879168 -1.87197356 6.80879168 -4 5 C-2.68 5 -1.36 5 0 5 C0 3.35 0 1.7 0 0 Z " fill="#F5F8E4" transform="translate(278,83)"/>
<path d="M0 0 C0.99 0 1.98 0 3 0 C2.34 3.63 1.68 7.26 1 11 C0.34 11 -0.32 11 -1 11 C-1.185625 10.071875 -1.185625 10.071875 -1.375 9.125 C-1.87197356 6.80879168 -1.87197356 6.80879168 -4 5 C-2.68 5 -1.36 5 0 5 C0 3.35 0 1.7 0 0 Z " fill="#F5F8E4" transform="translate(267,83)"/>
<path d="M0 0 C1.4540625 0.0309375 1.4540625 0.0309375 2.9375 0.0625 C2.6075 1.7125 2.2775 3.3625 1.9375 5.0625 C0.2875 5.0625 -1.3625 5.0625 -3.0625 5.0625 C-3.625 3.125 -3.625 3.125 -4.0625 1.0625 C-3.0625 0.0625 -3.0625 0.0625 0 0 Z " fill="#C0D840" transform="translate(232.0625,63.9375)"/>
<path d="M0 0 C0.33 0.66 0.66 1.32 1 2 C1.886875 1.649375 2.77375 1.29875 3.6875 0.9375 C7.06203126 -0.01755602 8.69686152 0.02848868 12 1 C12 1.99 12 2.98 12 4 C7.83861737 4.08159574 4.0527516 3.98248524 0 3 C0 2.01 0 1.02 0 0 Z " fill="#C3D94A" transform="translate(223,56)"/>
<path d="M0 0 C0.99 0 1.98 0 3 0 C3.33 1.32 3.66 2.64 4 4 C3.34 4 2.68 4 2 4 C2 5.32 2 6.64 2 8 C1.01 8 0.02 8 -1 8 C-1.93065133 5.39417629 -2.14917407 4.35801776 -1.0625 1.75 C-0.711875 1.1725 -0.36125 0.595 0 0 Z " fill="#E7F0BA" transform="translate(252,84)"/>
<path d="M0 0 C1.32 0 2.64 0 4 0 C3.67 1.65 3.34 3.3 3 5 C1.68 5.33 0.36 5.66 -1 6 C-1.042721 4.33388095 -1.04063832 2.66617115 -1 1 C-0.67 0.67 -0.34 0.34 0 0 Z " fill="#C0D73E" transform="translate(273,90)"/>
<path d="M0 0 C1.32 0 2.64 0 4 0 C3.67 1.65 3.34 3.3 3 5 C1.68 5.33 0.36 5.66 -1 6 C-1.042721 4.33388095 -1.04063832 2.66617115 -1 1 C-0.67 0.67 -0.34 0.34 0 0 Z " fill="#C0D73E" transform="translate(262,90)"/>
<path d="M0 0 C1.65 0 3.3 0 5 0 C5.33 1.32 5.66 2.64 6 4 C3.69 4 1.38 4 -1 4 C-0.67 2.68 -0.34 1.36 0 0 Z " fill="#C0D73D" transform="translate(208,56)"/>
<path d="M0 0 C0.66 0 1.32 0 2 0 C1.34 3.3 0.68 6.6 0 10 C-0.66 10 -1.32 10 -2 10 C-1.34 6.7 -0.68 3.4 0 0 Z " fill="#F6F9E8" transform="translate(282,88)"/>
</svg>
